<?xml version="1.0" encoding="utf-8" standalone="no"?>
<!DOCTYPE svg PUBLIC "-//W3C//DTD SVG 1.1//EN"
  "http://www.w3.org/Graphics/SVG/1.1/DTD/svg11.dtd">
<svg xmlns:xlink="http://www.w3.org/1999/xlink" width="792pt" height="360pt" viewBox="0 0 792 360" xmlns="http://www.w3.org/2000/svg" version="1.1">
 <metadata>
  <rdf:RDF xmlns:dc="http://purl.org/dc/elements/1.1/" xmlns:cc="http://creativecommons.org/ns#" xmlns:rdf="http://www.w3.org/1999/02/22-rdf-syntax-ns#">
   <cc:Work>
    <dc:type rdf:resource="http://purl.org/dc/dcmitype/StillImage"/>
    <dc:date>2026-09-20T13:11:16.431787</dc:date>
    <dc:format>image/svg+xml</dc:format>
    <dc:creator>
     <cc:Agent>
      <dc:title>Matplotlib v3.10.0, https://matplotlib.org/</dc:title>
     </cc:Agent>
    </dc:creator>
   </cc:Work>
  </rdf:RDF>
 </metadata>
 <defs>
  <style type="text/css">*{stroke-linejoin: round; stroke-linecap: butt}</style>
 </defs>
 <g id="figure_1">
  <g id="patch_1">
   <path d="M 0 360 
L 792 360 
L 792 0 
L 0 0 
z
" style="fill: #ffffff"/>
  </g>
  <g id="axes_1">
   <g id="patch_2">
    <path d="M 45.98 331.64 
L 388.89 331.64 
L 388.89 50.52 
L 45.98 50.52 
z
" style="fill: #ffffff"/>
   </g>
   <g id="patch_3">
    <path d="M 61.566818 331.64 
L 101.977088 331.64 
L 101.977088 321.883928 
L 61.566818 321.883928 
z
" clip-path="url(#pdab595291e)" style="fill: #5cb85c; opacity: 0.9"/>
   </g>
   <g id="patch_4">
    <path d="M 177.024731 331.64 
L 217.435 331.64 
L 217.435 323.103437 
L 177.024731 323.103437 
z
" clip-path="url(#pdab595291e)" style="fill: #5cb85c; opacity: 0.9"/>
   </g>
   <g id="patch_5">
    <path d="M 292.482643 331.64 
L 332.892912 331.64 
L 332.892912 320.664419 
L 292.482643 320.664419 
z
" clip-path="url(#pdab595291e)" style="fill: #5cb85c; opacity: 0.9"/>
   </g>
   <g id="patch_6">
    <path d="M 101.977088 331.64 
L 142.387357 331.64 
L 142.387357 132.203925 
L 101.977088 132.203925 
z
" clip-path="url(#pdab595291e)" style="fill: #d9534f; opacity: 0.9"/>
   </g>
   <g id="patch_7">
    <path d="M 217.435 331.64 
L 257.845269 331.64 
L 257.845269 127.960604 
L 217.435 127.960604 
z
" clip-path="url(#pdab595291e)" style="fill: #d9534f; opacity: 0.9"/>
   </g>
   <g id="patch_8">
    <path d="M 332.892912 331.64 
L 373.303182 331.64 
L 373.303182 106.744 
L 332.892912 106.744 
z
" clip-path="url(#pdab595291e)" style="fill: #d9534f; opacity: 0.9"/>
   </g>
   <g id="matplotlib.axis_1">
    <g id="xtick_1">
     <g id="line2d_1">
      <defs>
       <path id="mf16024acca" d="M 0 0 
L 0 3.5 
" style="stroke: #000000; stroke-width: 0.8"/>
      </defs>
      <g>
       <use xlink:href="#mf16024acca" x="101.977088" y="331.64" style="stroke: #000000; stroke-width: 0.8"/>
      </g>
     </g>
     <g id="text_1">
      <!-- BASE -->
      <g transform="translate(87.781072 347.264687) scale(0.11 -0.11)">
       <defs>
        <path id="AppleGothic-42" d="M 307 5018 
L 2029 5018 
Q 2675 5018 3053 4755 
Q 3494 4442 3494 3859 
Q 3494 3373 3181 3040 
Q 3091 2938 2960 2854 
Q 2829 2771 2662 2694 
Q 3322 2586 3616 2176 
Q 3840 1862 3840 1472 
Q 3840 838 3360 416 
Q 2899 0 2240 0 
L 307 0 
L 307 5018 
z
M 1997 4576 
L 813 4576 
L 813 2854 
L 1766 2854 
Q 2342 2854 2649 3113 
Q 2957 3373 2957 3782 
Q 2957 4102 2739 4333 
Q 2477 4576 1997 4576 
z
M 1907 2413 
L 813 2413 
L 813 442 
L 2029 442 
Q 2579 442 2931 717 
Q 3283 1011 3283 1466 
Q 3283 1926 2928 2169 
Q 2573 2413 1907 2413 
z
" transform="scale(0.015625)"/>
        <path id="AppleGothic-41" d="M 2086 5018 
L 2579 5018 
L 4448 0 
L 3859 0 
L 3258 1715 
L 1350 1715 
L 723 0 
L 166 0 
L 2086 5018 
z
M 3117 2157 
L 2342 4416 
L 1504 2157 
L 3117 2157 
z
" transform="scale(0.015625)"/>
        <path id="AppleGothic-53" d="M 3418 4666 
L 3418 4019 
Q 3251 4160 3081 4269 
Q 2912 4378 2746 4448 
Q 2362 4627 1965 4627 
Q 1466 4627 1139 4378 
Q 806 4122 806 3770 
Q 806 3258 1562 3002 
Q 1914 2880 2262 2768 
Q 2611 2656 2970 2541 
Q 3731 2176 3731 1453 
Q 3731 749 3187 320 
Q 2669 -83 1901 -83 
Q 1389 -83 915 115 
Q 640 224 262 474 
L 262 1126 
Q 755 685 1261 506 
Q 1427 442 1587 416 
Q 1747 390 1907 390 
Q 2419 390 2771 646 
Q 3162 928 3162 1382 
Q 3162 1933 2419 2221 
Q 2061 2330 1715 2445 
Q 1370 2560 1024 2669 
Q 275 3014 275 3731 
Q 275 4333 749 4710 
Q 1235 5101 1965 5101 
Q 2413 5101 2861 4934 
Q 3091 4858 3418 4666 
z
" transform="scale(0.015625)"/>
        <path id="AppleGothic-45" d="M 282 5024 
L 3405 5024 
L 3405 4582 
L 787 4582 
L 787 2848 
L 3309 2848 
L 3309 2406 
L 787 2406 
L 787 442 
L 3424 442 
L 3424 0 
L 282 0 
L 282 5024 
z
" transform="scale(0.015625)"/>
       </defs>
       <use xlink:href="#AppleGothic-42"/>
       <use xlink:href="#AppleGothic-41" transform="translate(64.399994 0)"/>
       <use xlink:href="#AppleGothic-53" transform="translate(136.999985 0)"/>
       <use xlink:href="#AppleGothic-45" transform="translate(200.199982 0)"/>
      </g>
     </g>
    </g>
    <g id="xtick_2">
     <g id="line2d_2">
      <g>
       <use xlink:href="#mf16024acca" x="217.435" y="331.64" style="stroke: #000000; stroke-width: 0.8"/>
      </g>
     </g>
     <g id="text_2">
      <!-- DUP -->
      <g transform="translate(206.308672 347.264687) scale(0.11 -0.11)">
       <defs>
        <path id="AppleGothic-44" d="M 358 5024 
L 1562 5024 
Q 2227 5024 2675 4858 
Q 2861 4787 3027 4681 
Q 3194 4576 3341 4429 
Q 3693 4077 3878 3584 
Q 4064 3091 4064 2554 
Q 4064 1357 3379 672 
Q 2688 0 1485 0 
L 358 0 
L 358 5024 
z
M 1363 4582 
L 864 4582 
L 864 442 
L 1690 442 
Q 2413 442 2912 941 
Q 3494 1523 3494 2560 
Q 3494 2765 3472 2944 
Q 3450 3123 3405 3290 
Q 3264 3776 2906 4122 
Q 2643 4371 2298 4480 
Q 1965 4582 1363 4582 
z
" transform="scale(0.015625)"/>
        <path id="AppleGothic-55" d="M 320 5018 
L 819 5018 
L 819 1766 
Q 819 1094 1293 723 
Q 1722 390 2374 390 
Q 2970 390 3386 717 
Q 3866 1101 3866 1766 
L 3866 5018 
L 4397 5018 
L 4397 1830 
Q 4397 947 3770 410 
Q 3187 -83 2394 -83 
Q 1478 -83 915 403 
Q 320 909 320 1811 
L 320 5018 
z
" transform="scale(0.015625)"/>
        <path id="AppleGothic-50" d="M 262 5018 
L 1869 5018 
Q 2560 5018 3002 4781 
Q 3597 4448 3597 3718 
Q 3597 3014 3104 2630 
Q 2656 2272 1952 2272 
L 768 2272 
L 768 0 
L 262 0 
L 262 5018 
z
M 1862 4576 
L 768 4576 
L 768 2714 
L 1901 2714 
Q 2349 2714 2675 2950 
Q 3040 3219 3040 3674 
Q 3040 4186 2611 4410 
Q 2298 4576 1862 4576 
z
" transform="scale(0.015625)"/>
       </defs>
       <use xlink:href="#AppleGothic-44"/>
       <use xlink:href="#AppleGothic-55" transform="translate(68.499985 0)"/>
       <use xlink:href="#AppleGothic-50" transform="translate(141.999969 0)"/>
      </g>
     </g>
    </g>
    <g id="xtick_3">
     <g id="line2d_3">
      <g>
       <use xlink:href="#mf16024acca" x="332.892912" y="331.64" style="stroke: #000000; stroke-width: 0.8"/>
      </g>
     </g>
     <g id="text_3">
      <!-- FLIP -->
      <g transform="translate(322.156741 347.264687) scale(0.11 -0.11)">
       <defs>
        <path id="AppleGothic-46" d="M 339 5018 
L 3462 5018 
L 3462 4576 
L 845 4576 
L 845 2714 
L 3354 2714 
L 3354 2304 
L 845 2304 
L 845 0 
L 339 0 
L 339 5018 
z
" transform="scale(0.015625)"/>
        <path id="AppleGothic-4c" d="M 333 5018 
L 838 5018 
L 838 442 
L 3315 442 
L 3315 0 
L 333 0 
L 333 5018 
z
" transform="scale(0.015625)"/>
        <path id="AppleGothic-49" d="M 435 5018 
L 934 5018 
L 934 0 
L 435 0 
L 435 5018 
z
" transform="scale(0.015625)"/>
       </defs>
       <use xlink:href="#AppleGothic-46"/>
       <use xlink:href="#AppleGothic-4c" transform="translate(58.199997 0)"/>
       <use xlink:href="#AppleGothic-49" transform="translate(113.399994 0)"/>
       <use xlink:href="#AppleGothic-50" transform="translate(134.899979 0)"/>
      </g>
     </g>
    </g>
   </g>
   <g id="matplotlib.axis_2">
    <g id="ytick_1">
     <g id="line2d_4">
      <path d="M 45.98 331.64 
L 388.89 331.64 
" clip-path="url(#pdab595291e)" style="fill: none; stroke-dasharray: 2.96,1.28; stroke-dashoffset: 0; stroke: #b0b0b0; stroke-opacity: 0.4; stroke-width: 0.8"/>
     </g>
     <g id="line2d_5">
      <defs>
       <path id="m483f580726" d="M 0 0 
L -3.5 0 
" style="stroke: #000000; stroke-width: 0.8"/>
      </defs>
      <g>
       <use xlink:href="#m483f580726" x="45.98" y="331.64" style="stroke: #000000; stroke-width: 0.8"/>
      </g>
     </g>
     <g id="text_4">
      <!-- 0 -->
      <g transform="translate(32.18 335.560313) scale(0.1 -0.1)">
       <defs>
        <path id="AppleGothic-30" d="M 2227 -83 
Q 1414 -83 934 576 
Q 461 1229 461 2387 
Q 461 3552 973 4218 
Q 1453 4858 2221 4858 
Q 3027 4858 3482 4173 
Q 3955 3494 3955 2394 
Q 3955 1248 3462 582 
Q 2976 -83 2227 -83 
z
M 2176 346 
Q 2861 346 3200 992 
Q 3462 1536 3462 2400 
Q 3462 3315 3162 3859 
Q 2822 4429 2214 4429 
Q 1574 4429 1248 3821 
Q 960 3283 960 2374 
Q 960 1478 1248 941 
Q 1574 346 2176 346 
z
" transform="scale(0.015625)"/>
       </defs>
       <use xlink:href="#AppleGothic-30"/>
      </g>
     </g>
    </g>
    <g id="ytick_2">
     <g id="line2d_6">
      <path d="M 45.98 271.172679 
L 388.89 271.172679 
" clip-path="url(#pdab595291e)" style="fill: none; stroke-dasharray: 2.96,1.28; stroke-dashoffset: 0; stroke: #b0b0b0; stroke-opacity: 0.4; stroke-width: 0.8"/>
     </g>
     <g id="line2d_7">
      <g>
       <use xlink:href="#m483f580726" x="45.98" y="271.172679" style="stroke: #000000; stroke-width: 0.8"/>
      </g>
     </g>
     <g id="text_5">
      <!-- 5 -->
      <g transform="translate(32.18 275.092992) scale(0.1 -0.1)">
       <defs>
        <path id="AppleGothic-35" d="M 621 4768 
L 3488 4768 
L 3488 4339 
L 1088 4339 
L 1088 2707 
Q 1184 2771 1293 2819 
Q 1402 2867 1510 2912 
Q 1862 3040 2259 3040 
Q 2989 3040 3424 2605 
Q 3827 2202 3827 1581 
Q 3827 870 3296 397 
Q 2765 -83 2010 -83 
Q 1651 -83 1248 45 
Q 1158 77 1001 137 
Q 845 198 621 301 
L 621 838 
Q 928 640 1203 525 
Q 1408 435 1613 390 
Q 1818 346 2010 346 
Q 2528 346 2906 666 
Q 3322 1011 3322 1536 
Q 3322 1990 3021 2291 
Q 2701 2611 2144 2611 
Q 1856 2611 1587 2528 
Q 1318 2445 1088 2272 
L 621 2272 
L 621 4768 
z
" transform="scale(0.015625)"/>
       </defs>
       <use xlink:href="#AppleGothic-35"/>
      </g>
     </g>
    </g>
    <g id="ytick_3">
     <g id="line2d_8">
      <path d="M 45.98 210.705358 
L 388.89 210.705358 
" clip-path="url(#pdab595291e)" style="fill: none; stroke-dasharray: 2.96,1.28; stroke-dashoffset: 0; stroke: #b0b0b0; stroke-opacity: 0.4; stroke-width: 0.8"/>
     </g>
     <g id="line2d_9">
      <g>
       <use xlink:href="#m483f580726" x="45.98" y="210.705358" style="stroke: #000000; stroke-width: 0.8"/>
      </g>
     </g>
     <g id="text_6">
      <!-- 10 -->
      <g transform="translate(25.38 214.625671) scale(0.1 -0.1)">
       <defs>
        <path id="AppleGothic-31" d="M 2342 4774 
L 2752 4774 
L 2752 0 
L 2285 0 
L 2285 3526 
L 1158 3526 
L 1158 3885 
L 1414 3885 
Q 1990 3885 2214 4205 
Q 2342 4410 2342 4774 
z
" transform="scale(0.015625)"/>
       </defs>
       <use xlink:href="#AppleGothic-31"/>
       <use xlink:href="#AppleGothic-30" transform="translate(67.999985 0)"/>
      </g>
     </g>
    </g>
    <g id="ytick_4">
     <g id="line2d_10">
      <path d="M 45.98 150.238038 
L 388.89 150.238038 
" clip-path="url(#pdab595291e)" style="fill: none; stroke-dasharray: 2.96,1.28; stroke-dashoffset: 0; stroke: #b0b0b0; stroke-opacity: 0.4; stroke-width: 0.8"/>
     </g>
     <g id="line2d_11">
      <g>
       <use xlink:href="#m483f580726" x="45.98" y="150.238038" style="stroke: #000000; stroke-width: 0.8"/>
      </g>
     </g>
     <g id="text_7">
      <!-- 15 -->
      <g transform="translate(25.38 154.15835) scale(0.1 -0.1)">
       <use xlink:href="#AppleGothic-31"/>
       <use xlink:href="#AppleGothic-35" transform="translate(67.999985 0)"/>
      </g>
     </g>
    </g>
    <g id="ytick_5">
     <g id="line2d_12">
      <path d="M 45.98 89.770717 
L 388.89 89.770717 
" clip-path="url(#pdab595291e)" style="fill: none; stroke-dasharray: 2.96,1.28; stroke-dashoffset: 0; stroke: #b0b0b0; stroke-opacity: 0.4; stroke-width: 0.8"/>
     </g>
     <g id="line2d_13">
      <g>
       <use xlink:href="#m483f580726" x="45.98" y="89.770717" style="stroke: #000000; stroke-width: 0.8"/>
      </g>
     </g>
     <g id="text_8">
      <!-- 20 -->
      <g transform="translate(25.38 93.691029) scale(0.1 -0.1)">
       <defs>
        <path id="AppleGothic-32" d="M 1101 429 
L 3942 429 
L 3942 0 
L 653 0 
L 653 205 
Q 653 1018 1344 1664 
Q 1670 1894 1990 2124 
Q 2310 2355 2637 2592 
Q 3334 3098 3334 3597 
Q 3334 3994 3014 4218 
Q 2867 4326 2694 4377 
Q 2522 4429 2317 4429 
Q 2016 4429 1741 4352 
Q 1325 4224 883 3910 
L 883 4435 
Q 1325 4659 1667 4758 
Q 2010 4858 2317 4858 
Q 2963 4858 3405 4525 
Q 3840 4198 3840 3622 
Q 3840 2995 3168 2438 
Q 2848 2214 2531 2000 
Q 2214 1786 1894 1562 
Q 1178 1024 1101 429 
z
" transform="scale(0.015625)"/>
       </defs>
       <use xlink:href="#AppleGothic-32"/>
       <use xlink:href="#AppleGothic-30" transform="translate(67.999985 0)"/>
      </g>
     </g>
    </g>
    <g id="text_9">
     <!-- FNR (%) -->
     <g transform="translate(19.487656 214.553828) rotate(-90) scale(0.11 -0.11)">
      <defs>
       <path id="AppleGothic-4e" d="M 320 0 
L 320 5018 
L 781 5018 
L 3866 768 
L 3866 5018 
L 4326 5018 
L 4326 0 
L 3866 0 
L 781 4243 
L 781 0 
L 320 0 
z
" transform="scale(0.015625)"/>
       <path id="AppleGothic-52" d="M 314 5018 
L 1971 5018 
Q 2637 5018 3072 4800 
Q 3680 4493 3680 3776 
Q 3680 3283 3405 2969 
Q 3130 2656 2522 2470 
Q 2630 2426 2713 2384 
Q 2797 2342 2848 2291 
Q 3072 2099 3200 1728 
L 3840 0 
L 3270 0 
L 2938 1050 
Q 2675 1837 2387 2080 
Q 2138 2310 1562 2310 
L 819 2310 
L 819 0 
L 314 0 
L 314 5018 
z
M 2067 4576 
L 819 4576 
L 819 2707 
L 1587 2707 
Q 2048 2707 2365 2793 
Q 2682 2880 2880 3072 
Q 3014 3194 3100 3373 
Q 3187 3552 3187 3738 
Q 3187 4090 2899 4320 
Q 2586 4576 2067 4576 
z
" transform="scale(0.015625)"/>
       <path id="AppleGothic-20" transform="scale(0.015625)"/>
       <path id="AppleGothic-28" d="M 2227 5261 
L 2650 5261 
Q 2342 4768 2169 4473 
Q 1997 4179 1958 4083 
Q 1606 3283 1606 2272 
Q 1606 1587 1754 1018 
Q 1882 570 2138 102 
Q 2150 70 2275 -131 
Q 2400 -333 2630 -717 
L 2227 -717 
Q 2099 -531 1980 -355 
Q 1862 -179 1734 0 
Q 1581 243 1469 483 
Q 1357 723 1274 954 
Q 1069 1587 1069 2272 
Q 1069 2963 1261 3558 
Q 1338 3789 1450 4022 
Q 1562 4256 1715 4499 
Q 1843 4691 1971 4880 
Q 2099 5069 2227 5261 
z
" transform="scale(0.015625)"/>
       <path id="AppleGothic-25" d="M 4896 -45 
Q 4320 -45 3949 339 
Q 3590 717 3590 1274 
Q 3590 1856 3962 2227 
Q 4333 2598 4877 2598 
Q 5402 2598 5779 2234 
Q 6150 1869 6150 1286 
Q 6150 691 5760 307 
Q 5389 -45 4896 -45 
z
M 4864 378 
Q 5024 378 5168 442 
Q 5312 506 5421 624 
Q 5530 742 5594 905 
Q 5658 1069 5658 1267 
Q 5658 1658 5427 1920 
Q 5190 2176 4883 2176 
Q 4582 2176 4352 1958 
Q 4090 1696 4090 1286 
Q 4090 883 4320 634 
Q 4550 378 4864 378 
z
M 4557 5370 
L 5030 5370 
L 2016 -333 
L 1549 -333 
L 4045 4378 
L 4026 4397 
Q 3930 4333 3776 4278 
Q 3622 4224 3456 4224 
Q 3347 4224 3177 4259 
Q 3008 4294 2835 4371 
Q 2867 4301 2886 4240 
Q 2906 4179 2918 4128 
Q 2970 3936 2970 3750 
Q 2970 3187 2598 2810 
Q 2227 2438 1690 2438 
Q 1146 2438 781 2810 
Q 422 3187 422 3763 
Q 422 4339 787 4717 
Q 1158 5101 1690 5101 
Q 1952 5101 2522 4870 
Q 2803 4755 3024 4700 
Q 3245 4646 3411 4646 
Q 3802 4646 4077 4819 
Q 4403 5018 4557 5370 
z
M 1683 2854 
Q 2003 2854 2240 3110 
Q 2470 3366 2470 3770 
Q 2470 3974 2406 4144 
Q 2342 4314 2236 4432 
Q 2131 4550 1990 4614 
Q 1850 4678 1690 4678 
Q 1530 4678 1392 4614 
Q 1254 4550 1148 4432 
Q 1043 4314 982 4144 
Q 922 3974 922 3770 
Q 922 3334 1171 3078 
Q 1382 2854 1683 2854 
z
" transform="scale(0.015625)"/>
       <path id="AppleGothic-29" d="M 2221 2272 
Q 2221 1587 2016 960 
Q 1862 499 1555 6 
Q 1427 -179 1305 -355 
Q 1184 -531 1062 -717 
L 659 -717 
Q 781 -512 902 -310 
Q 1024 -109 1152 96 
Q 1280 333 1376 557 
Q 1472 781 1530 1005 
Q 1683 1562 1683 2272 
Q 1683 2650 1641 2973 
Q 1600 3296 1517 3584 
Q 1459 3802 1356 4029 
Q 1254 4256 1120 4499 
Q 992 4691 873 4880 
Q 755 5069 640 5261 
L 1062 5261 
Q 1190 5069 1315 4880 
Q 1440 4691 1568 4506 
Q 1722 4256 1837 4022 
Q 1952 3789 2022 3565 
Q 2221 2976 2221 2272 
z
" transform="scale(0.015625)"/>
      </defs>
      <use xlink:href="#AppleGothic-46"/>
      <use xlink:href="#AppleGothic-4e" transform="translate(58.199997 0)"/>
      <use xlink:href="#AppleGothic-52" transform="translate(130.799988 0)"/>
      <use xlink:href="#AppleGothic-20" transform="translate(194.799973 0)"/>
      <use xlink:href="#AppleGothic-28" transform="translate(226.799957 0)"/>
      <use xlink:href="#AppleGothic-25" transform="translate(276.799942 0)"/>
      <use xlink:href="#AppleGothic-29" transform="translate(376.799927 0)"/>
     </g>
    </g>
   </g>
   <g id="patch_9">
    <path d="M 45.98 331.64 
L 45.98 50.52 
" style="fill: none; stroke: #000000; stroke-width: 0.8; stroke-linejoin: miter; stroke-linecap: square"/>
   </g>
   <g id="patch_10">
    <path d="M 388.89 331.64 
L 388.89 50.52 
" style="fill: none; stroke: #000000; stroke-width: 0.8; stroke-linejoin: miter; stroke-linecap: square"/>
   </g>
   <g id="patch_11">
    <path d="M 45.98 331.64 
L 388.89 331.64 
" style="fill: none; stroke: #000000; stroke-width: 0.8; stroke-linejoin: miter; stroke-linecap: square"/>
   </g>
   <g id="patch_12">
    <path d="M 45.98 50.52 
L 388.89 50.52 
" style="fill: none; stroke: #000000; stroke-width: 0.8; stroke-linejoin: miter; stroke-linecap: square"/>
   </g>
   <g id="text_10">
    <!-- 0.81% -->
    <g transform="translate(66.539453 317.883928) scale(0.09 -0.09)">
     <defs>
      <path id="AppleGothic-2e" d="M 915 -19 
Q 762 -19 653 109 
Q 544 237 544 422 
Q 544 614 656 745 
Q 768 877 915 877 
Q 1056 877 1168 758 
Q 1280 640 1280 435 
Q 1280 243 1171 112 
Q 1062 -19 915 -19 
z
" transform="scale(0.015625)"/>
      <path id="AppleGothic-38" d="M 2957 2605 
Q 3219 2528 3404 2445 
Q 3590 2362 3706 2272 
Q 4192 1926 4192 1370 
Q 4192 749 3642 333 
Q 3098 -83 2285 -83 
Q 1434 -83 947 326 
Q 512 691 512 1229 
Q 512 1798 998 2125 
Q 1146 2227 1341 2304 
Q 1536 2381 1779 2451 
Q 1574 2534 1430 2617 
Q 1286 2701 1197 2784 
Q 819 3104 819 3603 
Q 819 4173 1261 4512 
Q 1702 4858 2381 4858 
Q 3014 4858 3437 4570 
Q 3898 4262 3898 3738 
Q 3898 3373 3670 3081 
Q 3443 2790 2957 2605 
z
M 2406 2752 
Q 2624 2835 2781 2915 
Q 2938 2995 3040 3066 
Q 3398 3322 3398 3667 
Q 3398 3994 3104 4205 
Q 2822 4429 2362 4429 
Q 1894 4429 1613 4205 
Q 1325 3994 1325 3635 
Q 1325 3322 1581 3098 
Q 1696 3002 1901 2912 
Q 2106 2822 2406 2752 
z
M 2368 2304 
Q 2061 2202 1840 2106 
Q 1619 2010 1472 1920 
Q 1011 1626 1011 1235 
Q 1011 845 1376 595 
Q 1728 346 2310 346 
Q 2938 346 3315 640 
Q 3693 934 3693 1338 
Q 3693 1741 3238 1997 
Q 3104 2067 2886 2147 
Q 2669 2227 2368 2304 
z
" transform="scale(0.015625)"/>
     </defs>
     <use xlink:href="#AppleGothic-30"/>
     <use xlink:href="#AppleGothic-2e" transform="translate(67.999985 0)"/>
     <use xlink:href="#AppleGothic-38" transform="translate(102.499969 0)"/>
     <use xlink:href="#AppleGothic-31" transform="translate(170.499954 0)"/>
     <use xlink:href="#AppleGothic-25" transform="translate(238.499939 0)"/>
    </g>
   </g>
   <g id="text_11">
    <!-- 16.49% -->
    <g transform="translate(103.889722 128.203925) scale(0.09 -0.09)">
     <defs>
      <path id="AppleGothic-36" d="M 3699 4557 
L 3699 4013 
Q 3584 4102 3475 4163 
Q 3366 4224 3258 4275 
Q 3085 4358 2918 4393 
Q 2752 4429 2586 4429 
Q 2470 4429 2352 4409 
Q 2234 4390 2118 4339 
Q 1670 4154 1395 3738 
Q 1011 3149 1011 2189 
Q 1312 2490 1568 2656 
Q 2022 2931 2534 2931 
Q 3162 2931 3584 2566 
Q 4038 2163 4038 1491 
Q 4038 806 3558 358 
Q 3078 -83 2394 -83 
Q 1670 -83 1146 454 
Q 518 1088 518 2253 
Q 518 3411 1120 4134 
Q 1715 4858 2605 4858 
Q 2938 4858 3226 4762 
Q 3309 4730 3427 4682 
Q 3546 4634 3699 4557 
z
M 1062 1702 
Q 1152 1152 1498 768 
Q 1882 346 2419 346 
Q 2899 346 3213 659 
Q 3539 973 3539 1459 
Q 3539 1920 3226 2214 
Q 2918 2502 2496 2502 
Q 1990 2502 1542 2176 
Q 1414 2080 1292 1965 
Q 1171 1850 1062 1702 
z
" transform="scale(0.015625)"/>
      <path id="AppleGothic-34" d="M 2662 4774 
L 3130 4774 
L 3130 1811 
L 4000 1811 
L 4000 1382 
L 3130 1382 
L 3130 0 
L 2662 0 
L 2662 1382 
L 352 1382 
L 352 1811 
L 2662 4774 
z
M 2662 1811 
L 2662 4166 
L 838 1811 
L 2662 1811 
z
" transform="scale(0.015625)"/>
      <path id="AppleGothic-39" d="M 928 211 
L 928 762 
Q 1050 672 1155 601 
Q 1261 531 1363 480 
Q 1702 320 2016 320 
Q 2291 320 2541 435 
Q 2739 525 2908 675 
Q 3078 826 3213 1037 
Q 3456 1408 3552 1843 
Q 3616 2144 3616 2573 
Q 3315 2272 3066 2125 
Q 2605 1850 2093 1850 
Q 1459 1850 1037 2214 
Q 589 2598 589 3270 
Q 589 3987 1082 4416 
Q 1549 4832 2234 4832 
Q 2970 4832 3494 4301 
Q 4122 3661 4122 2528 
Q 4122 1325 3475 582 
Q 2874 -109 2035 -109 
Q 1722 -109 1357 19 
Q 1254 51 1148 102 
Q 1043 154 928 211 
z
M 3578 3066 
Q 3462 3718 3053 4077 
Q 2675 4403 2227 4403 
Q 1715 4403 1402 4083 
Q 1082 3750 1082 3302 
Q 1082 2861 1370 2566 
Q 1658 2278 2125 2278 
Q 2573 2278 2915 2473 
Q 3258 2669 3578 3066 
z
" transform="scale(0.015625)"/>
     </defs>
     <use xlink:href="#AppleGothic-31"/>
     <use xlink:href="#AppleGothic-36" transform="translate(67.999985 0)"/>
     <use xlink:href="#AppleGothic-2e" transform="translate(135.999969 0)"/>
     <use xlink:href="#AppleGothic-34" transform="translate(170.499954 0)"/>
     <use xlink:href="#AppleGothic-39" transform="translate(238.499939 0)"/>
     <use xlink:href="#AppleGothic-25" transform="translate(306.499924 0)"/>
    </g>
   </g>
   <g id="text_12">
    <!-- 0.71% -->
    <g transform="translate(181.997365 319.103437) scale(0.09 -0.09)">
     <defs>
      <path id="AppleGothic-37" d="M 595 4774 
L 3802 4774 
L 3802 4410 
L 1734 0 
L 1235 0 
L 3277 4352 
L 595 4352 
L 595 4774 
z
" transform="scale(0.015625)"/>
     </defs>
     <use xlink:href="#AppleGothic-30"/>
     <use xlink:href="#AppleGothic-2e" transform="translate(67.999985 0)"/>
     <use xlink:href="#AppleGothic-37" transform="translate(102.499969 0)"/>
     <use xlink:href="#AppleGothic-31" transform="translate(170.499954 0)"/>
     <use xlink:href="#AppleGothic-25" transform="translate(238.499939 0)"/>
    </g>
   </g>
   <g id="text_13">
    <!-- 16.84% -->
    <g transform="translate(219.347635 123.960604) scale(0.09 -0.09)">
     <use xlink:href="#AppleGothic-31"/>
     <use xlink:href="#AppleGothic-36" transform="translate(67.999985 0)"/>
     <use xlink:href="#AppleGothic-2e" transform="translate(135.999969 0)"/>
     <use xlink:href="#AppleGothic-38" transform="translate(170.499954 0)"/>
     <use xlink:href="#AppleGothic-34" transform="translate(238.499939 0)"/>
     <use xlink:href="#AppleGothic-25" transform="translate(306.499924 0)"/>
    </g>
   </g>
   <g id="text_14">
    <!-- 0.91% -->
    <g transform="translate(297.455278 316.664419) scale(0.09 -0.09)">
     <use xlink:href="#AppleGothic-30"/>
     <use xlink:href="#AppleGothic-2e" transform="translate(67.999985 0)"/>
     <use xlink:href="#AppleGothic-39" transform="translate(102.499969 0)"/>
     <use xlink:href="#AppleGothic-31" transform="translate(170.499954 0)"/>
     <use xlink:href="#AppleGothic-25" transform="translate(238.499939 0)"/>
    </g>
   </g>
   <g id="text_15">
    <!-- 18.60% -->
    <g transform="translate(334.805547 102.744) scale(0.09 -0.09)">
     <use xlink:href="#AppleGothic-31"/>
     <use xlink:href="#AppleGothic-38" transform="translate(67.999985 0)"/>
     <use xlink:href="#AppleGothic-2e" transform="translate(135.999969 0)"/>
     <use xlink:href="#AppleGothic-36" transform="translate(170.499954 0)"/>
     <use xlink:href="#AppleGothic-30" transform="translate(238.499939 0)"/>
     <use xlink:href="#AppleGothic-25" transform="translate(306.499924 0)"/>
    </g>
   </g>
   <g id="text_16">
    <!-- Smishing Miss Rate (FNR %) (0 Baseline) -->
    <g transform="translate(101.176563 44.52) scale(0.12 -0.12)">
     <defs>
      <path id="AppleGothic-6d" d="M 5389 2195 
L 5389 0 
L 4922 0 
L 4922 2304 
Q 4922 2669 4672 2893 
Q 4461 3085 4173 3085 
Q 3744 3085 3405 2688 
Q 3072 2298 3072 1722 
L 3072 0 
L 2605 0 
L 2605 2304 
Q 2605 2650 2368 2861 
Q 2144 3085 1856 3085 
Q 1440 3085 1114 2714 
Q 755 2304 755 1702 
L 755 0 
L 288 0 
L 288 3424 
L 723 3424 
L 742 2880 
Q 928 3181 1274 3354 
Q 1581 3501 1894 3501 
Q 2381 3501 2714 3219 
Q 2957 3008 3021 2797 
Q 3149 3034 3386 3226 
Q 3757 3501 4205 3501 
Q 4749 3501 5050 3174 
Q 5389 2803 5389 2195 
z
" transform="scale(0.015625)"/>
      <path id="AppleGothic-69" d="M 256 3424 
L 717 3424 
L 717 0 
L 256 0 
L 256 3424 
z
M 480 4870 
Q 614 4870 704 4780 
Q 794 4691 794 4525 
Q 794 4358 710 4268 
Q 627 4179 480 4179 
Q 333 4179 253 4281 
Q 173 4384 173 4518 
Q 173 4730 269 4800 
Q 365 4870 480 4870 
z
" transform="scale(0.015625)"/>
      <path id="AppleGothic-73" d="M 224 294 
L 224 851 
Q 621 531 1030 403 
Q 1152 371 1267 355 
Q 1382 339 1504 339 
Q 1894 339 2150 518 
Q 2413 710 2413 947 
Q 2413 1075 2317 1210 
Q 2182 1376 1600 1510 
Q 909 1683 678 1798 
Q 230 2054 230 2515 
Q 230 2944 602 3219 
Q 979 3501 1542 3501 
Q 1798 3501 2003 3456 
Q 2208 3411 2387 3337 
Q 2566 3264 2720 3155 
L 2720 2598 
Q 2451 2822 2156 2953 
Q 1862 3085 1536 3085 
Q 1210 3085 973 2938 
Q 730 2790 730 2554 
Q 730 2240 1306 2054 
Q 1574 1978 1836 1901 
Q 2099 1824 2368 1747 
Q 2950 1498 2950 992 
Q 2950 563 2547 237 
Q 2138 -83 1530 -83 
Q 1261 -83 1005 -26 
Q 595 64 224 294 
z
" transform="scale(0.015625)"/>
      <path id="AppleGothic-68" d="M 288 5018 
L 749 5018 
L 749 2810 
Q 909 3066 1139 3238 
Q 1491 3501 1926 3501 
Q 2195 3501 2409 3424 
Q 2624 3347 2803 3200 
Q 3181 2867 3181 2266 
L 3181 0 
L 2714 0 
L 2714 2202 
Q 2714 2573 2477 2829 
Q 2240 3085 1901 3085 
Q 1408 3085 1082 2694 
Q 749 2291 749 1773 
L 749 0 
L 288 0 
L 288 5018 
z
" transform="scale(0.015625)"/>
      <path id="AppleGothic-6e" d="M 3264 2291 
L 3264 0 
L 2803 0 
L 2803 2259 
Q 2803 2618 2541 2848 
Q 2278 3085 1914 3085 
Q 1427 3085 1075 2682 
Q 723 2272 723 1760 
L 723 0 
L 288 0 
L 288 3424 
L 691 3424 
L 710 2784 
Q 883 3046 1114 3219 
Q 1491 3501 1965 3501 
Q 2515 3501 2886 3168 
Q 3264 2842 3264 2291 
z
" transform="scale(0.015625)"/>
      <path id="AppleGothic-67" d="M 2822 3040 
L 2950 3424 
L 3290 3424 
L 3290 326 
Q 3290 -474 2899 -890 
Q 2509 -1306 1690 -1306 
Q 1357 -1306 1059 -1187 
Q 762 -1069 435 -819 
L 435 -256 
Q 640 -448 838 -579 
Q 1037 -710 1229 -781 
Q 1453 -864 1690 -864 
Q 2195 -864 2477 -634 
Q 2822 -352 2822 269 
L 2822 691 
Q 2579 288 2221 122 
Q 1978 6 1683 6 
Q 1050 6 621 512 
Q 198 1030 198 1709 
Q 198 2387 595 2906 
Q 1056 3501 1773 3501 
Q 2131 3501 2451 3328 
Q 2547 3270 2640 3200 
Q 2733 3130 2822 3040 
z
M 2822 1658 
L 2822 2598 
Q 2714 2720 2602 2803 
Q 2490 2886 2381 2950 
Q 2253 3021 2118 3053 
Q 1984 3085 1843 3085 
Q 1363 3085 1050 2746 
Q 698 2362 698 1734 
Q 698 1165 992 794 
Q 1280 429 1741 429 
Q 2195 429 2509 781 
Q 2822 1120 2822 1658 
z
" transform="scale(0.015625)"/>
      <path id="AppleGothic-4d" d="M 288 0 
L 288 5018 
L 947 5018 
L 2893 864 
L 4902 5018 
L 5523 5018 
L 5523 0 
L 5069 0 
L 5069 4358 
L 3002 0 
L 2784 0 
L 749 4352 
L 749 0 
L 288 0 
z
" transform="scale(0.015625)"/>
      <path id="AppleGothic-61" d="M 2950 2214 
L 2950 602 
Q 2950 493 2998 413 
Q 3046 333 3174 333 
Q 3213 333 3238 336 
Q 3264 339 3290 346 
Q 3328 358 3357 371 
Q 3386 384 3405 390 
L 3405 32 
Q 3290 -6 3174 -22 
Q 3059 -38 2995 -38 
Q 2669 -38 2566 134 
Q 2483 243 2483 602 
Q 2400 461 2317 355 
Q 2234 250 2150 179 
Q 1818 -83 1376 -83 
Q 909 -83 563 192 
Q 205 486 205 941 
Q 205 1510 781 1779 
Q 992 1882 1341 1958 
Q 1690 2035 2176 2099 
L 2483 2131 
Q 2483 2579 2256 2832 
Q 2029 3085 1587 3085 
Q 1421 3085 1257 3043 
Q 1094 3002 928 2912 
Q 838 2861 729 2790 
Q 621 2720 493 2611 
L 493 3136 
Q 1037 3501 1664 3501 
Q 2304 3501 2650 3098 
Q 2950 2746 2950 2214 
z
M 2483 1542 
L 2483 1747 
L 2266 1722 
Q 1466 1638 1139 1498 
Q 704 1325 704 934 
Q 704 819 755 713 
Q 806 608 896 525 
Q 986 442 1117 390 
Q 1248 339 1408 339 
Q 1843 339 2170 691 
Q 2483 1050 2483 1542 
z
" transform="scale(0.015625)"/>
      <path id="AppleGothic-74" d="M 691 4435 
L 1114 4435 
L 1114 3430 
L 2016 3430 
L 2016 3014 
L 1114 3014 
L 1114 838 
Q 1114 570 1213 454 
Q 1312 339 1555 339 
Q 1696 339 1795 371 
Q 1894 403 2016 454 
L 2016 38 
Q 1914 6 1770 -22 
Q 1626 -51 1478 -51 
Q 1094 -51 883 122 
Q 646 301 646 698 
L 646 3014 
L 70 3014 
L 70 3430 
L 646 3430 
L 691 4435 
z
" transform="scale(0.015625)"/>
      <path id="AppleGothic-65" d="M 3296 1850 
L 691 1850 
Q 691 1114 1033 726 
Q 1376 339 1933 339 
Q 2355 339 2746 608 
Q 2854 678 2976 784 
Q 3098 890 3238 1030 
L 3238 474 
Q 3085 358 2953 272 
Q 2822 186 2707 128 
Q 2304 -83 1901 -83 
Q 1203 -83 717 397 
Q 192 902 192 1709 
Q 192 2470 666 2982 
Q 1146 3501 1850 3501 
Q 2534 3501 2938 3002 
Q 3296 2547 3296 1850 
z
M 755 2240 
L 2758 2240 
Q 2682 2675 2429 2889 
Q 2176 3104 1818 3104 
Q 1421 3104 1146 2854 
Q 890 2624 755 2240 
z
" transform="scale(0.015625)"/>
      <path id="AppleGothic-6c" d="M 288 5018 
L 749 5018 
L 749 0 
L 288 0 
L 288 5018 
z
" transform="scale(0.015625)"/>
     </defs>
     <use xlink:href="#AppleGothic-53"/>
     <use xlink:href="#AppleGothic-6d" transform="translate(63.199997 0)"/>
     <use xlink:href="#AppleGothic-69" transform="translate(152.499985 0)"/>
     <use xlink:href="#AppleGothic-73" transform="translate(168.399979 0)"/>
     <use xlink:href="#AppleGothic-68" transform="translate(217.999969 0)"/>
     <use xlink:href="#AppleGothic-69" transform="translate(270.199966 0)"/>
     <use xlink:href="#AppleGothic-6e" transform="translate(286.09996 0)"/>
     <use xlink:href="#AppleGothic-67" transform="translate(341.999954 0)"/>
     <use xlink:href="#AppleGothic-20" transform="translate(398.199951 0)"/>
     <use xlink:href="#AppleGothic-4d" transform="translate(430.199936 0)"/>
     <use xlink:href="#AppleGothic-69" transform="translate(521.299927 0)"/>
     <use xlink:href="#AppleGothic-73" transform="translate(537.199921 0)"/>
     <use xlink:href="#AppleGothic-73" transform="translate(586.799911 0)"/>
     <use xlink:href="#AppleGothic-20" transform="translate(636.399902 0)"/>
     <use xlink:href="#AppleGothic-52" transform="translate(668.399887 0)"/>
     <use xlink:href="#AppleGothic-61" transform="translate(732.399872 0)"/>
     <use xlink:href="#AppleGothic-74" transform="translate(788.899857 0)"/>
     <use xlink:href="#AppleGothic-65" transform="translate(823.099854 0)"/>
     <use xlink:href="#AppleGothic-20" transform="translate(877.999847 0)"/>
     <use xlink:href="#AppleGothic-28" transform="translate(909.999832 0)"/>
     <use xlink:href="#AppleGothic-46" transform="translate(959.999817 0)"/>
     <use xlink:href="#AppleGothic-4e" transform="translate(1018.199814 0)"/>
     <use xlink:href="#AppleGothic-52" transform="translate(1090.799805 0)"/>
     <use xlink:href="#AppleGothic-20" transform="translate(1154.799789 0)"/>
     <use xlink:href="#AppleGothic-25" transform="translate(1186.799774 0)"/>
     <use xlink:href="#AppleGothic-29" transform="translate(1286.799759 0)"/>
     <use xlink:href="#AppleGothic-20" transform="translate(1336.799744 0)"/>
     <use xlink:href="#AppleGothic-28" transform="translate(1368.799728 0)"/>
     <use xlink:href="#AppleGothic-30" transform="translate(1418.799713 0)"/>
     <use xlink:href="#AppleGothic-20" transform="translate(1486.799698 0)"/>
     <use xlink:href="#AppleGothic-42" transform="translate(1518.799683 0)"/>
     <use xlink:href="#AppleGothic-61" transform="translate(1583.199677 0)"/>
     <use xlink:href="#AppleGothic-73" transform="translate(1639.699661 0)"/>
     <use xlink:href="#AppleGothic-65" transform="translate(1689.299652 0)"/>
     <use xlink:href="#AppleGothic-6c" transform="translate(1744.199646 0)"/>
     <use xlink:href="#AppleGothic-69" transform="translate(1760.899643 0)"/>
     <use xlink:href="#AppleGothic-6e" transform="translate(1776.799637 0)"/>
     <use xlink:href="#AppleGothic-65" transform="translate(1832.699631 0)"/>
     <use xlink:href="#AppleGothic-29" transform="translate(1887.599625 0)"/>
    </g>
   </g>
   <g id="legend_1">
    <g id="patch_13">
     <path d="M 52.98 87.90125 
L 204.570625 87.90125 
Q 206.570625 87.90125 206.570625 85.90125 
L 206.570625 57.52 
Q 206.570625 55.52 204.570625 55.52 
L 52.98 55.52 
Q 50.98 55.52 50.98 57.52 
L 50.98 85.90125 
Q 50.98 87.90125 52.98 87.90125 
z
" style="fill: #ffffff; opacity: 0.8; stroke: #cccccc; stroke-linejoin: miter"/>
    </g>
    <g id="patch_14">
     <path d="M 54.98 67.490313 
L 74.98 67.490313 
L 74.98 60.490313 
L 54.98 60.490313 
z
" style="fill: #5cb85c; opacity: 0.9"/>
    </g>
    <g id="text_17">
     <!-- Visible (&lt;=128, N=595) -->
     <g transform="translate(82.98 67.490313) scale(0.1 -0.1)">
      <defs>
       <path id="AppleGothic-56" d="M 109 5018 
L 678 5018 
L 2310 608 
L 3910 5018 
L 4493 5018 
L 2573 0 
L 2074 0 
L 109 5018 
z
" transform="scale(0.015625)"/>
       <path id="AppleGothic-62" d="M 288 5018 
L 755 5018 
L 755 2848 
Q 845 2982 931 3078 
Q 1018 3174 1107 3245 
Q 1440 3501 1882 3501 
Q 2547 3501 2976 2995 
Q 3418 2483 3418 1754 
Q 3418 1005 2976 480 
Q 2502 -83 1792 -83 
Q 1402 -83 1114 90 
Q 928 192 755 384 
L 634 0 
L 288 0 
L 288 5018 
z
M 755 1862 
L 755 870 
Q 845 762 934 678 
Q 1024 595 1101 538 
Q 1382 339 1741 339 
Q 2234 339 2554 742 
Q 2874 1158 2874 1747 
Q 2874 2362 2515 2752 
Q 2208 3085 1805 3085 
Q 1370 3085 1056 2714 
Q 755 2355 755 1862 
z
" transform="scale(0.015625)"/>
       <path id="AppleGothic-3c" d="M 896 2368 
L 2560 -333 
L 2330 -512 
L 525 2368 
L 2330 5248 
L 2560 5069 
L 896 2368 
z
" transform="scale(0.015625)"/>
       <path id="AppleGothic-3d" d="M 467 3437 
L 4358 3437 
L 4358 3027 
L 467 3027 
L 467 3437 
z
M 467 1734 
L 4358 1734 
L 4358 1344 
L 467 1344 
L 467 1734 
z
" transform="scale(0.015625)"/>
       <path id="AppleGothic-2c" d="M 806 -941 
L 550 -941 
Q 666 -698 723 -502 
Q 781 -307 806 -64 
Q 666 0 602 77 
Q 525 160 525 346 
Q 525 576 630 720 
Q 736 864 883 864 
Q 1030 864 1113 701 
Q 1197 538 1197 326 
Q 1197 141 1161 -48 
Q 1126 -237 1056 -429 
Q 1011 -538 950 -662 
Q 890 -787 806 -941 
z
" transform="scale(0.015625)"/>
      </defs>
      <use xlink:href="#AppleGothic-56"/>
      <use xlink:href="#AppleGothic-69" transform="translate(71.099991 0)"/>
      <use xlink:href="#AppleGothic-73" transform="translate(86.999985 0)"/>
      <use xlink:href="#AppleGothic-69" transform="translate(136.599976 0)"/>
      <use xlink:href="#AppleGothic-62" transform="translate(152.499969 0)"/>
      <use xlink:href="#AppleGothic-6c" transform="translate(208.699966 0)"/>
      <use xlink:href="#AppleGothic-65" transform="translate(225.399963 0)"/>
      <use xlink:href="#AppleGothic-20" transform="translate(280.299957 0)"/>
      <use xlink:href="#AppleGothic-28" transform="translate(312.299942 0)"/>
      <use xlink:href="#AppleGothic-3c" transform="translate(362.299927 0)"/>
      <use xlink:href="#AppleGothic-3d" transform="translate(412.299911 0)"/>
      <use xlink:href="#AppleGothic-31" transform="translate(489.099899 0)"/>
      <use xlink:href="#AppleGothic-32" transform="translate(557.099884 0)"/>
      <use xlink:href="#AppleGothic-38" transform="translate(625.099869 0)"/>
      <use xlink:href="#AppleGothic-2c" transform="translate(693.099854 0)"/>
      <use xlink:href="#AppleGothic-20" transform="translate(721.399841 0)"/>
      <use xlink:href="#AppleGothic-4e" transform="translate(753.399826 0)"/>
      <use xlink:href="#AppleGothic-3d" transform="translate(825.999817 0)"/>
      <use xlink:href="#AppleGothic-35" transform="translate(902.799805 0)"/>
      <use xlink:href="#AppleGothic-39" transform="translate(970.799789 0)"/>
      <use xlink:href="#AppleGothic-35" transform="translate(1038.799774 0)"/>
      <use xlink:href="#AppleGothic-29" transform="translate(1106.799759 0)"/>
     </g>
    </g>
    <g id="patch_15">
     <path d="M 54.98 82.180938 
L 74.98 82.180938 
L 74.98 75.180938 
L 54.98 75.180938 
z
" style="fill: #d9534f; opacity: 0.9"/>
    </g>
    <g id="text_18">
     <!-- Truncated (&gt;128, N=57) -->
     <g transform="translate(82.98 82.180938) scale(0.1 -0.1)">
      <defs>
       <path id="AppleGothic-54" d="M 166 5018 
L 4038 5018 
L 4038 4576 
L 2355 4576 
L 2355 0 
L 1856 0 
L 1856 4576 
L 166 4576 
L 166 5018 
z
" transform="scale(0.015625)"/>
       <path id="AppleGothic-72" d="M 2125 3424 
L 2125 2963 
Q 2054 2989 2009 3005 
Q 1965 3021 1933 3027 
Q 1901 3034 1865 3037 
Q 1830 3040 1773 3040 
Q 1306 3040 1005 2586 
Q 749 2170 749 1658 
L 749 0 
L 288 0 
L 288 3424 
L 710 3424 
L 742 2835 
Q 902 3104 1043 3219 
Q 1331 3456 1734 3456 
Q 1843 3456 1936 3449 
Q 2029 3443 2125 3424 
z
" transform="scale(0.015625)"/>
       <path id="AppleGothic-75" d="M 262 3424 
L 730 3424 
L 730 1242 
Q 730 877 941 627 
Q 1171 339 1594 339 
Q 2080 339 2426 730 
Q 2784 1139 2784 1632 
L 2784 3424 
L 3245 3424 
L 3245 0 
L 2842 0 
L 2810 582 
Q 2707 442 2592 330 
Q 2477 218 2342 134 
Q 1984 -83 1555 -83 
Q 966 -83 614 282 
Q 262 653 262 1184 
L 262 3424 
z
" transform="scale(0.015625)"/>
       <path id="AppleGothic-63" d="M 3085 3123 
L 3085 2522 
Q 2726 2861 2349 3008 
Q 2240 3053 2125 3069 
Q 2010 3085 1894 3085 
Q 1363 3085 1024 2688 
Q 685 2278 685 1715 
Q 685 1139 1037 730 
Q 1389 339 1920 339 
Q 2253 339 2528 483 
Q 2803 627 3085 915 
L 3085 307 
Q 2746 96 2470 6 
Q 2195 -83 1914 -83 
Q 1197 -83 685 429 
Q 186 960 186 1709 
Q 186 2445 678 2976 
Q 1178 3501 1920 3501 
Q 2298 3501 2624 3373 
Q 2816 3302 3085 3123 
z
" transform="scale(0.015625)"/>
       <path id="AppleGothic-64" d="M 2682 5018 
L 3174 5018 
L 3174 0 
L 2733 0 
L 2688 557 
Q 2598 429 2508 329 
Q 2419 230 2330 160 
Q 2010 -83 1587 -83 
Q 928 -83 493 429 
Q 64 941 64 1670 
Q 64 2426 518 2957 
Q 979 3501 1670 3501 
Q 1958 3501 2208 3398 
Q 2298 3360 2416 3296 
Q 2534 3232 2682 3142 
L 2682 5018 
z
M 2682 1658 
L 2682 2643 
Q 2381 2906 2157 2995 
Q 1933 3085 1722 3085 
Q 1197 3085 870 2643 
Q 563 2227 563 1677 
Q 563 1088 902 698 
Q 1216 339 1645 339 
Q 2067 339 2374 710 
Q 2682 1082 2682 1658 
z
" transform="scale(0.015625)"/>
       <path id="AppleGothic-3e" d="M 640 5069 
L 870 5248 
L 2675 2368 
L 870 -512 
L 640 -333 
L 2304 2368 
L 640 5069 
z
" transform="scale(0.015625)"/>
      </defs>
      <use xlink:href="#AppleGothic-54"/>
      <use xlink:href="#AppleGothic-72" transform="translate(66.099991 0)"/>
      <use xlink:href="#AppleGothic-75" transform="translate(101.299988 0)"/>
      <use xlink:href="#AppleGothic-6e" transform="translate(156.799973 0)"/>
      <use xlink:href="#AppleGothic-63" transform="translate(212.699966 0)"/>
      <use xlink:href="#AppleGothic-61" transform="translate(264.59996 0)"/>
      <use xlink:href="#AppleGothic-74" transform="translate(321.099945 0)"/>
      <use xlink:href="#AppleGothic-65" transform="translate(355.299942 0)"/>
      <use xlink:href="#AppleGothic-64" transform="translate(410.199936 0)"/>
      <use xlink:href="#AppleGothic-20" transform="translate(464.199921 0)"/>
      <use xlink:href="#AppleGothic-28" transform="translate(496.199905 0)"/>
      <use xlink:href="#AppleGothic-3e" transform="translate(546.19989 0)"/>
      <use xlink:href="#AppleGothic-31" transform="translate(596.199875 0)"/>
      <use xlink:href="#AppleGothic-32" transform="translate(664.19986 0)"/>
      <use xlink:href="#AppleGothic-38" transform="translate(732.199844 0)"/>
      <use xlink:href="#AppleGothic-2c" transform="translate(800.199829 0)"/>
      <use xlink:href="#AppleGothic-20" transform="translate(828.499817 0)"/>
      <use xlink:href="#AppleGothic-4e" transform="translate(860.499802 0)"/>
      <use xlink:href="#AppleGothic-3d" transform="translate(933.099792 0)"/>
      <use xlink:href="#AppleGothic-35" transform="translate(1009.89978 0)"/>
      <use xlink:href="#AppleGothic-37" transform="translate(1077.899765 0)"/>
      <use xlink:href="#AppleGothic-29" transform="translate(1145.89975 0)"/>
     </g>
    </g>
   </g>
  </g>
  <g id="axes_2">
   <g id="patch_16">
    <path d="M 438.29 331.64 
L 781.2 331.64 
L 781.2 50.52 
L 438.29 50.52 
z
" style="fill: #ffffff"/>
   </g>
   <g id="patch_17">
    <path d="M 453.876818 331.64 
L 494.287088 331.64 
L 494.287088 287.203124 
L 453.876818 287.203124 
z
" clip-path="url(#pf6f0adb8ef)" style="fill: #5bc0de; opacity: 0.9"/>
   </g>
   <g id="patch_18">
    <path d="M 569.334731 331.64 
L 609.745 331.64 
L 609.745 290.621346 
L 569.334731 290.621346 
z
" clip-path="url(#pf6f0adb8ef)" style="fill: #5bc0de; opacity: 0.9"/>
   </g>
   <g id="patch_19">
    <path d="M 684.792643 331.64 
L 725.202912 331.64 
L 725.202912 290.621346 
L 684.792643 290.621346 
z
" clip-path="url(#pf6f0adb8ef)" style="fill: #5bc0de; opacity: 0.9"/>
   </g>
   <g id="patch_20">
    <path d="M 494.287088 331.64 
L 534.697357 331.64 
L 534.697357 123.402963 
L 494.287088 123.402963 
z
" clip-path="url(#pf6f0adb8ef)" style="fill: #f0ad4e; opacity: 0.9"/>
   </g>
   <g id="patch_21">
    <path d="M 609.745 331.64 
L 650.155269 331.64 
L 650.155269 218.844938 
L 609.745 218.844938 
z
" clip-path="url(#pf6f0adb8ef)" style="fill: #f0ad4e; opacity: 0.9"/>
   </g>
   <g id="patch_22">
    <path d="M 725.202912 331.64 
L 765.613182 331.64 
L 765.613182 210.168395 
L 725.202912 210.168395 
z
" clip-path="url(#pf6f0adb8ef)" style="fill: #f0ad4e; opacity: 0.9"/>
   </g>
   <g id="matplotlib.axis_3">
    <g id="xtick_4">
     <g id="line2d_14">
      <g>
       <use xlink:href="#mf16024acca" x="494.287088" y="331.64" style="stroke: #000000; stroke-width: 0.8"/>
      </g>
     </g>
     <g id="text_19">
      <!-- BASE -->
      <g transform="translate(480.091072 347.264687) scale(0.11 -0.11)">
       <use xlink:href="#AppleGothic-42"/>
       <use xlink:href="#AppleGothic-41" transform="translate(64.399994 0)"/>
       <use xlink:href="#AppleGothic-53" transform="translate(136.999985 0)"/>
       <use xlink:href="#AppleGothic-45" transform="translate(200.199982 0)"/>
      </g>
     </g>
    </g>
    <g id="xtick_5">
     <g id="line2d_15">
      <g>
       <use xlink:href="#mf16024acca" x="609.745" y="331.64" style="stroke: #000000; stroke-width: 0.8"/>
      </g>
     </g>
     <g id="text_20">
      <!-- DUP -->
      <g transform="translate(598.618672 347.264687) scale(0.11 -0.11)">
       <use xlink:href="#AppleGothic-44"/>
       <use xlink:href="#AppleGothic-55" transform="translate(68.499985 0)"/>
       <use xlink:href="#AppleGothic-50" transform="translate(141.999969 0)"/>
      </g>
     </g>
    </g>
    <g id="xtick_6">
     <g id="line2d_16">
      <g>
       <use xlink:href="#mf16024acca" x="725.202912" y="331.64" style="stroke: #000000; stroke-width: 0.8"/>
      </g>
     </g>
     <g id="text_21">
      <!-- FLIP -->
      <g transform="translate(714.466741 347.264687) scale(0.11 -0.11)">
       <use xlink:href="#AppleGothic-46"/>
       <use xlink:href="#AppleGothic-4c" transform="translate(58.199997 0)"/>
       <use xlink:href="#AppleGothic-49" transform="translate(113.399994 0)"/>
       <use xlink:href="#AppleGothic-50" transform="translate(134.899979 0)"/>
      </g>
     </g>
    </g>
   </g>
   <g id="matplotlib.axis_4">
    <g id="ytick_6">
     <g id="line2d_17">
      <path d="M 438.29 331.64 
L 781.2 331.64 
" clip-path="url(#pf6f0adb8ef)" style="fill: none; stroke-dasharray: 2.96,1.28; stroke-dashoffset: 0; stroke: #b0b0b0; stroke-opacity: 0.4; stroke-width: 0.8"/>
     </g>
     <g id="line2d_18">
      <g>
       <use xlink:href="#m483f580726" x="438.29" y="331.64" style="stroke: #000000; stroke-width: 0.8"/>
      </g>
     </g>
     <g id="text_22">
      <!-- 0.0 -->
      <g transform="translate(414.24 335.560313) scale(0.1 -0.1)">
       <use xlink:href="#AppleGothic-30"/>
       <use xlink:href="#AppleGothic-2e" transform="translate(67.999985 0)"/>
       <use xlink:href="#AppleGothic-30" transform="translate(102.499969 0)"/>
      </g>
     </g>
    </g>
    <g id="ytick_7">
     <g id="line2d_19">
      <path d="M 438.29 272.205679 
L 781.2 272.205679 
" clip-path="url(#pf6f0adb8ef)" style="fill: none; stroke-dasharray: 2.96,1.28; stroke-dashoffset: 0; stroke: #b0b0b0; stroke-opacity: 0.4; stroke-width: 0.8"/>
     </g>
     <g id="line2d_20">
      <g>
       <use xlink:href="#m483f580726" x="438.29" y="272.205679" style="stroke: #000000; stroke-width: 0.8"/>
      </g>
     </g>
     <g id="text_23">
      <!-- 0.5 -->
      <g transform="translate(414.24 276.125992) scale(0.1 -0.1)">
       <use xlink:href="#AppleGothic-30"/>
       <use xlink:href="#AppleGothic-2e" transform="translate(67.999985 0)"/>
       <use xlink:href="#AppleGothic-35" transform="translate(102.499969 0)"/>
      </g>
     </g>
    </g>
    <g id="ytick_8">
     <g id="line2d_21">
      <path d="M 438.29 212.771358 
L 781.2 212.771358 
" clip-path="url(#pf6f0adb8ef)" style="fill: none; stroke-dasharray: 2.96,1.28; stroke-dashoffset: 0; stroke: #b0b0b0; stroke-opacity: 0.4; stroke-width: 0.8"/>
     </g>
     <g id="line2d_22">
      <g>
       <use xlink:href="#m483f580726" x="438.29" y="212.771358" style="stroke: #000000; stroke-width: 0.8"/>
      </g>
     </g>
     <g id="text_24">
      <!-- 1.0 -->
      <g transform="translate(414.24 216.691671) scale(0.1 -0.1)">
       <use xlink:href="#AppleGothic-31"/>
       <use xlink:href="#AppleGothic-2e" transform="translate(67.999985 0)"/>
       <use xlink:href="#AppleGothic-30" transform="translate(102.499969 0)"/>
      </g>
     </g>
    </g>
    <g id="ytick_9">
     <g id="line2d_23">
      <path d="M 438.29 153.337037 
L 781.2 153.337037 
" clip-path="url(#pf6f0adb8ef)" style="fill: none; stroke-dasharray: 2.96,1.28; stroke-dashoffset: 0; stroke: #b0b0b0; stroke-opacity: 0.4; stroke-width: 0.8"/>
     </g>
     <g id="line2d_24">
      <g>
       <use xlink:href="#m483f580726" x="438.29" y="153.337037" style="stroke: #000000; stroke-width: 0.8"/>
      </g>
     </g>
     <g id="text_25">
      <!-- 1.5 -->
      <g transform="translate(414.24 157.25735) scale(0.1 -0.1)">
       <use xlink:href="#AppleGothic-31"/>
       <use xlink:href="#AppleGothic-2e" transform="translate(67.999985 0)"/>
       <use xlink:href="#AppleGothic-35" transform="translate(102.499969 0)"/>
      </g>
     </g>
    </g>
    <g id="ytick_10">
     <g id="line2d_25">
      <path d="M 438.29 93.902716 
L 781.2 93.902716 
" clip-path="url(#pf6f0adb8ef)" style="fill: none; stroke-dasharray: 2.96,1.28; stroke-dashoffset: 0; stroke: #b0b0b0; stroke-opacity: 0.4; stroke-width: 0.8"/>
     </g>
     <g id="line2d_26">
      <g>
       <use xlink:href="#m483f580726" x="438.29" y="93.902716" style="stroke: #000000; stroke-width: 0.8"/>
      </g>
     </g>
     <g id="text_26">
      <!-- 2.0 -->
      <g transform="translate(414.24 97.823029) scale(0.1 -0.1)">
       <use xlink:href="#AppleGothic-32"/>
       <use xlink:href="#AppleGothic-2e" transform="translate(67.999985 0)"/>
       <use xlink:href="#AppleGothic-30" transform="translate(102.499969 0)"/>
      </g>
     </g>
    </g>
    <g id="text_27">
     <!-- FPR (%) -->
     <g transform="translate(408.347656 213.8775) rotate(-90) scale(0.11 -0.11)">
      <use xlink:href="#AppleGothic-46"/>
      <use xlink:href="#AppleGothic-50" transform="translate(58.199997 0)"/>
      <use xlink:href="#AppleGothic-52" transform="translate(118.499985 0)"/>
      <use xlink:href="#AppleGothic-20" transform="translate(182.499969 0)"/>
      <use xlink:href="#AppleGothic-28" transform="translate(214.499954 0)"/>
      <use xlink:href="#AppleGothic-25" transform="translate(264.499939 0)"/>
      <use xlink:href="#AppleGothic-29" transform="translate(364.499924 0)"/>
     </g>
    </g>
   </g>
   <g id="patch_23">
    <path d="M 438.29 331.64 
L 438.29 50.52 
" style="fill: none; stroke: #000000; stroke-width: 0.8; stroke-linejoin: miter; stroke-linecap: square"/>
   </g>
   <g id="patch_24">
    <path d="M 781.2 331.64 
L 781.2 50.52 
" style="fill: none; stroke: #000000; stroke-width: 0.8; stroke-linejoin: miter; stroke-linecap: square"/>
   </g>
   <g id="patch_25">
    <path d="M 438.29 331.64 
L 781.2 331.64 
" style="fill: none; stroke: #000000; stroke-width: 0.8; stroke-linejoin: miter; stroke-linecap: square"/>
   </g>
   <g id="patch_26">
    <path d="M 438.29 50.52 
L 781.2 50.52 
" style="fill: none; stroke: #000000; stroke-width: 0.8; stroke-linejoin: miter; stroke-linecap: square"/>
   </g>
   <g id="text_28">
    <!-- 0.37% -->
    <g transform="translate(458.849453 283.203124) scale(0.09 -0.09)">
     <defs>
      <path id="AppleGothic-33" d="M 550 333 
L 550 870 
Q 883 621 1235 483 
Q 1587 346 1971 346 
Q 2522 346 2861 666 
Q 3219 992 3219 1421 
Q 3219 1869 2842 2099 
Q 2515 2304 1965 2304 
L 992 2304 
L 992 2701 
L 1658 2701 
Q 2298 2701 2662 2928 
Q 3027 3155 3027 3584 
Q 3027 3936 2752 4173 
Q 2458 4429 1978 4429 
Q 1786 4429 1597 4393 
Q 1408 4358 1222 4282 
Q 890 4141 531 3872 
L 531 4422 
Q 736 4531 912 4608 
Q 1088 4685 1254 4736 
Q 1626 4858 2022 4858 
Q 2650 4858 3066 4531 
Q 3488 4211 3488 3642 
Q 3488 3168 3168 2861 
Q 2976 2675 2643 2554 
Q 2874 2522 3053 2448 
Q 3232 2374 3366 2266 
Q 3718 1971 3718 1434 
Q 3718 813 3219 365 
Q 2714 -83 1965 -83 
Q 1549 -83 1126 70 
Q 1024 102 880 166 
Q 736 230 550 333 
z
" transform="scale(0.015625)"/>
     </defs>
     <use xlink:href="#AppleGothic-30"/>
     <use xlink:href="#AppleGothic-2e" transform="translate(67.999985 0)"/>
     <use xlink:href="#AppleGothic-33" transform="translate(102.499969 0)"/>
     <use xlink:href="#AppleGothic-37" transform="translate(170.499954 0)"/>
     <use xlink:href="#AppleGothic-25" transform="translate(238.499939 0)"/>
    </g>
   </g>
   <g id="text_29">
    <!-- 1.75% -->
    <g transform="translate(499.259722 119.402963) scale(0.09 -0.09)">
     <use xlink:href="#AppleGothic-31"/>
     <use xlink:href="#AppleGothic-2e" transform="translate(67.999985 0)"/>
     <use xlink:href="#AppleGothic-37" transform="translate(102.499969 0)"/>
     <use xlink:href="#AppleGothic-35" transform="translate(170.499954 0)"/>
     <use xlink:href="#AppleGothic-25" transform="translate(238.499939 0)"/>
    </g>
   </g>
   <g id="text_30">
    <!-- 0.35% -->
    <g transform="translate(574.307365 286.621346) scale(0.09 -0.09)">
     <use xlink:href="#AppleGothic-30"/>
     <use xlink:href="#AppleGothic-2e" transform="translate(67.999985 0)"/>
     <use xlink:href="#AppleGothic-33" transform="translate(102.499969 0)"/>
     <use xlink:href="#AppleGothic-35" transform="translate(170.499954 0)"/>
     <use xlink:href="#AppleGothic-25" transform="translate(238.499939 0)"/>
    </g>
   </g>
   <g id="text_31">
    <!-- 0.95% -->
    <g transform="translate(614.717635 214.844938) scale(0.09 -0.09)">
     <use xlink:href="#AppleGothic-30"/>
     <use xlink:href="#AppleGothic-2e" transform="translate(67.999985 0)"/>
     <use xlink:href="#AppleGothic-39" transform="translate(102.499969 0)"/>
     <use xlink:href="#AppleGothic-35" transform="translate(170.499954 0)"/>
     <use xlink:href="#AppleGothic-25" transform="translate(238.499939 0)"/>
    </g>
   </g>
   <g id="text_32">
    <!-- 0.35% -->
    <g transform="translate(689.765278 286.621346) scale(0.09 -0.09)">
     <use xlink:href="#AppleGothic-30"/>
     <use xlink:href="#AppleGothic-2e" transform="translate(67.999985 0)"/>
     <use xlink:href="#AppleGothic-33" transform="translate(102.499969 0)"/>
     <use xlink:href="#AppleGothic-35" transform="translate(170.499954 0)"/>
     <use xlink:href="#AppleGothic-25" transform="translate(238.499939 0)"/>
    </g>
   </g>
   <g id="text_33">
    <!-- 1.02% -->
    <g transform="translate(730.175547 206.168395) scale(0.09 -0.09)">
     <use xlink:href="#AppleGothic-31"/>
     <use xlink:href="#AppleGothic-2e" transform="translate(67.999985 0)"/>
     <use xlink:href="#AppleGothic-30" transform="translate(102.499969 0)"/>
     <use xlink:href="#AppleGothic-32" transform="translate(170.499954 0)"/>
     <use xlink:href="#AppleGothic-25" transform="translate(238.499939 0)"/>
    </g>
   </g>
   <g id="text_34">
    <!-- False Positive Rate (FPR %) (0 Baseline) -->
    <g transform="translate(495.735625 44.52) scale(0.12 -0.12)">
     <defs>
      <path id="AppleGothic-6f" d="M 1888 -83 
Q 1229 -83 730 397 
Q 198 902 198 1709 
Q 198 2470 666 2982 
Q 1146 3501 1850 3501 
Q 2547 3501 3027 2982 
Q 3501 2470 3501 1715 
Q 3501 922 2989 403 
Q 2515 -83 1888 -83 
z
M 1843 339 
Q 2304 339 2662 723 
Q 3008 1114 3008 1715 
Q 3008 2336 2637 2726 
Q 2298 3085 1850 3085 
Q 1389 3085 1062 2714 
Q 704 2304 704 1709 
Q 704 1107 1056 704 
Q 1382 339 1843 339 
z
" transform="scale(0.015625)"/>
      <path id="AppleGothic-76" d="M 109 3424 
L 627 3424 
L 1715 486 
L 2829 3424 
L 3290 3424 
L 1920 0 
L 1478 0 
L 109 3424 
z
" transform="scale(0.015625)"/>
     </defs>
     <use xlink:href="#AppleGothic-46"/>
     <use xlink:href="#AppleGothic-61" transform="translate(58.199997 0)"/>
     <use xlink:href="#AppleGothic-6c" transform="translate(114.699982 0)"/>
     <use xlink:href="#AppleGothic-73" transform="translate(131.399979 0)"/>
     <use xlink:href="#AppleGothic-65" transform="translate(180.999969 0)"/>
     <use xlink:href="#AppleGothic-20" transform="translate(235.899963 0)"/>
     <use xlink:href="#AppleGothic-50" transform="translate(267.899948 0)"/>
     <use xlink:href="#AppleGothic-6f" transform="translate(328.199936 0)"/>
     <use xlink:href="#AppleGothic-73" transform="translate(386.499924 0)"/>
     <use xlink:href="#AppleGothic-69" transform="translate(436.099915 0)"/>
     <use xlink:href="#AppleGothic-74" transform="translate(451.999908 0)"/>
     <use xlink:href="#AppleGothic-69" transform="translate(486.199905 0)"/>
     <use xlink:href="#AppleGothic-76" transform="translate(502.099899 0)"/>
     <use xlink:href="#AppleGothic-65" transform="translate(556.299896 0)"/>
     <use xlink:href="#AppleGothic-20" transform="translate(611.19989 0)"/>
     <use xlink:href="#AppleGothic-52" transform="translate(643.199875 0)"/>
     <use xlink:href="#AppleGothic-61" transform="translate(707.19986 0)"/>
     <use xlink:href="#AppleGothic-74" transform="translate(763.699844 0)"/>
     <use xlink:href="#AppleGothic-65" transform="translate(797.899841 0)"/>
     <use xlink:href="#AppleGothic-20" transform="translate(852.799835 0)"/>
     <use xlink:href="#AppleGothic-28" transform="translate(884.79982 0)"/>
     <use xlink:href="#AppleGothic-46" transform="translate(934.799805 0)"/>
     <use xlink:href="#AppleGothic-50" transform="translate(992.999802 0)"/>
     <use xlink:href="#AppleGothic-52" transform="translate(1053.299789 0)"/>
     <use xlink:href="#AppleGothic-20" transform="translate(1117.299774 0)"/>
     <use xlink:href="#AppleGothic-25" transform="translate(1149.299759 0)"/>
     <use xlink:href="#AppleGothic-29" transform="translate(1249.299744 0)"/>
     <use xlink:href="#AppleGothic-20" transform="translate(1299.299728 0)"/>
     <use xlink:href="#AppleGothic-28" transform="translate(1331.299713 0)"/>
     <use xlink:href="#AppleGothic-30" transform="translate(1381.299698 0)"/>
     <use xlink:href="#AppleGothic-20" transform="translate(1449.299683 0)"/>
     <use xlink:href="#AppleGothic-42" transform="translate(1481.299667 0)"/>
     <use xlink:href="#AppleGothic-61" transform="translate(1545.699661 0)"/>
     <use xlink:href="#AppleGothic-73" transform="translate(1602.199646 0)"/>
     <use xlink:href="#AppleGothic-65" transform="translate(1651.799637 0)"/>
     <use xlink:href="#AppleGothic-6c" transform="translate(1706.699631 0)"/>
     <use xlink:href="#AppleGothic-69" transform="translate(1723.399628 0)"/>
     <use xlink:href="#AppleGothic-6e" transform="translate(1739.299622 0)"/>
     <use xlink:href="#AppleGothic-65" transform="translate(1795.199615 0)"/>
     <use xlink:href="#AppleGothic-29" transform="translate(1850.099609 0)"/>
    </g>
   </g>
   <g id="legend_2">
    <g id="patch_27">
     <path d="M 445.29 87.90125 
L 603.680625 87.90125 
Q 605.680625 87.90125 605.680625 85.90125 
L 605.680625 57.52 
Q 605.680625 55.52 603.680625 55.52 
L 445.29 55.52 
Q 443.29 55.52 443.29 57.52 
L 443.29 85.90125 
Q 443.29 87.90125 445.29 87.90125 
z
" style="fill: #ffffff; opacity: 0.8; stroke: #cccccc; stroke-linejoin: miter"/>
    </g>
    <g id="patch_28">
     <path d="M 447.29 67.490313 
L 467.29 67.490313 
L 467.29 60.490313 
L 447.29 60.490313 
z
" style="fill: #5bc0de; opacity: 0.9"/>
    </g>
    <g id="text_35">
     <!-- Visible (&lt;=128, N=1391) -->
     <g transform="translate(475.29 67.490313) scale(0.1 -0.1)">
      <use xlink:href="#AppleGothic-56"/>
      <use xlink:href="#AppleGothic-69" transform="translate(71.099991 0)"/>
      <use xlink:href="#AppleGothic-73" transform="translate(86.999985 0)"/>
      <use xlink:href="#AppleGothic-69" transform="translate(136.599976 0)"/>
      <use xlink:href="#AppleGothic-62" transform="translate(152.499969 0)"/>
      <use xlink:href="#AppleGothic-6c" transform="translate(208.699966 0)"/>
      <use xlink:href="#AppleGothic-65" transform="translate(225.399963 0)"/>
      <use xlink:href="#AppleGothic-20" transform="translate(280.299957 0)"/>
      <use xlink:href="#AppleGothic-28" transform="translate(312.299942 0)"/>
      <use xlink:href="#AppleGothic-3c" transform="translate(362.299927 0)"/>
      <use xlink:href="#AppleGothic-3d" transform="translate(412.299911 0)"/>
      <use xlink:href="#AppleGothic-31" transform="translate(489.099899 0)"/>
      <use xlink:href="#AppleGothic-32" transform="translate(557.099884 0)"/>
      <use xlink:href="#AppleGothic-38" transform="translate(625.099869 0)"/>
      <use xlink:href="#AppleGothic-2c" transform="translate(693.099854 0)"/>
      <use xlink:href="#AppleGothic-20" transform="translate(721.399841 0)"/>
      <use xlink:href="#AppleGothic-4e" transform="translate(753.399826 0)"/>
      <use xlink:href="#AppleGothic-3d" transform="translate(825.999817 0)"/>
      <use xlink:href="#AppleGothic-31" transform="translate(902.799805 0)"/>
      <use xlink:href="#AppleGothic-33" transform="translate(970.799789 0)"/>
      <use xlink:href="#AppleGothic-39" transform="translate(1038.799774 0)"/>
      <use xlink:href="#AppleGothic-31" transform="translate(1106.799759 0)"/>
      <use xlink:href="#AppleGothic-29" transform="translate(1174.799744 0)"/>
     </g>
    </g>
    <g id="patch_29">
     <path d="M 447.29 82.180938 
L 467.29 82.180938 
L 467.29 75.180938 
L 447.29 75.180938 
z
" style="fill: #f0ad4e; opacity: 0.9"/>
    </g>
    <g id="text_36">
     <!-- Truncated (&gt;128, N=274) -->
     <g transform="translate(475.29 82.180938) scale(0.1 -0.1)">
      <use xlink:href="#AppleGothic-54"/>
      <use xlink:href="#AppleGothic-72" transform="translate(66.099991 0)"/>
      <use xlink:href="#AppleGothic-75" transform="translate(101.299988 0)"/>
      <use xlink:href="#AppleGothic-6e" transform="translate(156.799973 0)"/>
      <use xlink:href="#AppleGothic-63" transform="translate(212.699966 0)"/>
      <use xlink:href="#AppleGothic-61" transform="translate(264.59996 0)"/>
      <use xlink:href="#AppleGothic-74" transform="translate(321.099945 0)"/>
      <use xlink:href="#AppleGothic-65" transform="translate(355.299942 0)"/>
      <use xlink:href="#AppleGothic-64" transform="translate(410.199936 0)"/>
      <use xlink:href="#AppleGothic-20" transform="translate(464.199921 0)"/>
      <use xlink:href="#AppleGothic-28" transform="translate(496.199905 0)"/>
      <use xlink:href="#AppleGothic-3e" transform="translate(546.19989 0)"/>
      <use xlink:href="#AppleGothic-31" transform="translate(596.199875 0)"/>
      <use xlink:href="#AppleGothic-32" transform="translate(664.19986 0)"/>
      <use xlink:href="#AppleGothic-38" transform="translate(732.199844 0)"/>
      <use xlink:href="#AppleGothic-2c" transform="translate(800.199829 0)"/>
      <use xlink:href="#AppleGothic-20" transform="translate(828.499817 0)"/>
      <use xlink:href="#AppleGothic-4e" transform="translate(860.499802 0)"/>
      <use xlink:href="#AppleGothic-3d" transform="translate(933.099792 0)"/>
      <use xlink:href="#AppleGothic-32" transform="translate(1009.89978 0)"/>
      <use xlink:href="#AppleGothic-37" transform="translate(1077.899765 0)"/>
      <use xlink:href="#AppleGothic-34" transform="translate(1145.89975 0)"/>
      <use xlink:href="#AppleGothic-29" transform="translate(1213.899734 0)"/>
     </g>
    </g>
   </g>
  </g>
  <g id="text_37">
   <!-- Tokenizer 128 Truncation Error Rate Contrast (Descriptive Cohort) -->
   <g transform="translate(195.812187 17.886406) scale(0.13 -0.13)">
    <defs>
     <path id="AppleGothic-6b" d="M 288 5018 
L 755 5018 
L 755 1914 
L 2330 3424 
L 2982 3424 
L 1542 2093 
L 3187 0 
L 2554 0 
L 1197 1786 
L 755 1376 
L 755 0 
L 288 0 
L 288 5018 
z
" transform="scale(0.015625)"/>
     <path id="AppleGothic-7a" d="M 333 2989 
L 333 3424 
L 3059 3424 
L 3059 3040 
L 762 378 
Q 890 378 1178 397 
Q 1318 403 1430 406 
Q 1542 410 1632 410 
L 3149 410 
L 3149 0 
L 211 0 
L 211 378 
L 2496 3040 
Q 2330 3027 2163 3020 
Q 1997 3014 1818 3002 
Q 1638 2995 1500 2992 
Q 1363 2989 1261 2989 
L 333 2989 
z
" transform="scale(0.015625)"/>
     <path id="AppleGothic-43" d="M 4109 4621 
L 4109 3974 
Q 3872 4205 3565 4371 
Q 3085 4627 2598 4627 
Q 1850 4627 1312 3994 
Q 1043 3680 912 3309 
Q 781 2938 781 2515 
Q 781 1651 1318 1030 
Q 1850 410 2611 410 
Q 2970 410 3344 554 
Q 3718 698 4109 998 
L 4109 378 
Q 3251 -83 2554 -83 
Q 1651 -83 973 614 
Q 243 1363 243 2490 
Q 243 3584 922 4339 
Q 1613 5101 2630 5101 
Q 3027 5101 3392 4979 
Q 3757 4858 4109 4621 
z
" transform="scale(0.015625)"/>
     <path id="AppleGothic-70" d="M 736 307 
L 736 -1101 
L 288 -1101 
L 288 3424 
L 704 3424 
L 730 2803 
Q 941 3149 1216 3325 
Q 1491 3501 1882 3501 
Q 2522 3501 2944 3002 
Q 3162 2752 3270 2441 
Q 3379 2131 3379 1747 
Q 3379 954 2899 435 
Q 2419 -83 1754 -83 
Q 1421 -83 1139 58 
Q 1056 90 960 154 
Q 864 218 736 307 
z
M 736 1824 
L 736 800 
Q 838 704 924 637 
Q 1011 570 1082 525 
Q 1395 339 1715 339 
Q 2227 339 2554 742 
Q 2886 1165 2886 1766 
Q 2886 2330 2579 2707 
Q 2278 3085 1811 3085 
Q 1331 3085 1018 2669 
Q 736 2291 736 1824 
z
" transform="scale(0.015625)"/>
    </defs>
    <use xlink:href="#AppleGothic-54"/>
    <use xlink:href="#AppleGothic-6f" transform="translate(66.099991 0)"/>
    <use xlink:href="#AppleGothic-6b" transform="translate(124.399979 0)"/>
    <use xlink:href="#AppleGothic-65" transform="translate(175.799973 0)"/>
    <use xlink:href="#AppleGothic-6e" transform="translate(230.699966 0)"/>
    <use xlink:href="#AppleGothic-69" transform="translate(286.59996 0)"/>
    <use xlink:href="#AppleGothic-7a" transform="translate(302.499954 0)"/>
    <use xlink:href="#AppleGothic-65" transform="translate(355.099945 0)"/>
    <use xlink:href="#AppleGothic-72" transform="translate(409.999939 0)"/>
    <use xlink:href="#AppleGothic-20" transform="translate(445.199936 0)"/>
    <use xlink:href="#AppleGothic-31" transform="translate(477.199921 0)"/>
    <use xlink:href="#AppleGothic-32" transform="translate(545.199905 0)"/>
    <use xlink:href="#AppleGothic-38" transform="translate(613.19989 0)"/>
    <use xlink:href="#AppleGothic-20" transform="translate(681.199875 0)"/>
    <use xlink:href="#AppleGothic-54" transform="translate(713.19986 0)"/>
    <use xlink:href="#AppleGothic-72" transform="translate(779.29985 0)"/>
    <use xlink:href="#AppleGothic-75" transform="translate(814.499847 0)"/>
    <use xlink:href="#AppleGothic-6e" transform="translate(869.999832 0)"/>
    <use xlink:href="#AppleGothic-63" transform="translate(925.899826 0)"/>
    <use xlink:href="#AppleGothic-61" transform="translate(977.79982 0)"/>
    <use xlink:href="#AppleGothic-74" transform="translate(1034.299805 0)"/>
    <use xlink:href="#AppleGothic-69" transform="translate(1068.499802 0)"/>
    <use xlink:href="#AppleGothic-6f" transform="translate(1084.399796 0)"/>
    <use xlink:href="#AppleGothic-6e" transform="translate(1142.699783 0)"/>
    <use xlink:href="#AppleGothic-20" transform="translate(1198.599777 0)"/>
    <use xlink:href="#AppleGothic-45" transform="translate(1230.599762 0)"/>
    <use xlink:href="#AppleGothic-72" transform="translate(1288.499756 0)"/>
    <use xlink:href="#AppleGothic-72" transform="translate(1323.699753 0)"/>
    <use xlink:href="#AppleGothic-6f" transform="translate(1358.89975 0)"/>
    <use xlink:href="#AppleGothic-72" transform="translate(1417.199738 0)"/>
    <use xlink:href="#AppleGothic-20" transform="translate(1452.399734 0)"/>
    <use xlink:href="#AppleGothic-52" transform="translate(1484.399719 0)"/>
    <use xlink:href="#AppleGothic-61" transform="translate(1548.399704 0)"/>
    <use xlink:href="#AppleGothic-74" transform="translate(1604.899689 0)"/>
    <use xlink:href="#AppleGothic-65" transform="translate(1639.099686 0)"/>
    <use xlink:href="#AppleGothic-20" transform="translate(1693.99968 0)"/>
    <use xlink:href="#AppleGothic-43" transform="translate(1725.999664 0)"/>
    <use xlink:href="#AppleGothic-6f" transform="translate(1794.499649 0)"/>
    <use xlink:href="#AppleGothic-6e" transform="translate(1852.799637 0)"/>
    <use xlink:href="#AppleGothic-74" transform="translate(1908.699631 0)"/>
    <use xlink:href="#AppleGothic-72" transform="translate(1942.899628 0)"/>
    <use xlink:href="#AppleGothic-61" transform="translate(1978.099625 0)"/>
    <use xlink:href="#AppleGothic-73" transform="translate(2034.599609 0)"/>
    <use xlink:href="#AppleGothic-74" transform="translate(2084.1996 0)"/>
    <use xlink:href="#AppleGothic-20" transform="translate(2118.399597 0)"/>
    <use xlink:href="#AppleGothic-28" transform="translate(2150.399582 0)"/>
    <use xlink:href="#AppleGothic-44" transform="translate(2200.399567 0)"/>
    <use xlink:href="#AppleGothic-65" transform="translate(2268.899551 0)"/>
    <use xlink:href="#AppleGothic-73" transform="translate(2323.799545 0)"/>
    <use xlink:href="#AppleGothic-63" transform="translate(2373.399536 0)"/>
    <use xlink:href="#AppleGothic-72" transform="translate(2425.29953 0)"/>
    <use xlink:href="#AppleGothic-69" transform="translate(2460.499527 0)"/>
    <use xlink:href="#AppleGothic-70" transform="translate(2476.399521 0)"/>
    <use xlink:href="#AppleGothic-74" transform="translate(2531.799515 0)"/>
    <use xlink:href="#AppleGothic-69" transform="translate(2565.999512 0)"/>
    <use xlink:href="#AppleGothic-76" transform="translate(2581.899506 0)"/>
    <use xlink:href="#AppleGothic-65" transform="translate(2636.099503 0)"/>
    <use xlink:href="#AppleGothic-20" transform="translate(2690.999496 0)"/>
    <use xlink:href="#AppleGothic-43" transform="translate(2722.999481 0)"/>
    <use xlink:href="#AppleGothic-6f" transform="translate(2791.499466 0)"/>
    <use xlink:href="#AppleGothic-68" transform="translate(2849.799454 0)"/>
    <use xlink:href="#AppleGothic-6f" transform="translate(2901.999451 0)"/>
    <use xlink:href="#AppleGothic-72" transform="translate(2960.299438 0)"/>
    <use xlink:href="#AppleGothic-74" transform="translate(2995.499435 0)"/>
    <use xlink:href="#AppleGothic-29" transform="translate(3029.699432 0)"/>
   </g>
  </g>
 </g>
 <defs>
  <clipPath id="pdab595291e">
   <rect x="45.98" y="50.52" width="342.91" height="281.12"/>
  </clipPath>
  <clipPath id="pf6f0adb8ef">
   <rect x="438.29" y="50.52" width="342.91" height="281.12"/>
  </clipPath>
 </defs>
</svg>
